<?xml version="1.0" standalone="no"?>
<!DOCTYPE svg PUBLIC "-//W3C//DTD SVG 20010904//EN"
 "http://www.w3.org/TR/2001/REC-SVG-20010904/DTD/svg10.dtd">
<svg version="1.0" xmlns="http://www.w3.org/2000/svg"
 width="640.000000pt" height="640.000000pt" viewBox="0 0 640.000000 640.000000"
 preserveAspectRatio="xMidYMid meet">
<metadata>
Created by potrace 1.14, written by Peter Selinger 2001-2017
</metadata>
<g transform="translate(0.000000,640.000000) scale(0.100000,-0.100000)"
fill="#000000" stroke="none">
<path d="M4985 6359 c25 -23 61 -59 80 -80 l35 -39 0 80 0 80 -80 0 -80 0 45
-41z"/>
<path d="M2885 6095 c-457 -86 -817 -245 -1084 -478 -241 -211 -401 -498 -470
-846 -30 -149 -29 -168 25 -273 137 -265 304 -312 478 -135 88 89 127 156 170
287 40 123 103 258 157 336 105 155 341 320 555 387 432 137 894 -38 1073
-405 68 -139 91 -232 98 -398 15 -361 -123 -664 -406 -894 -183 -148 -494
-320 -715 -396 -212 -73 -294 -126 -478 -311 -156 -157 -269 -344 -304 -503
-25 -117 -15 -335 24 -523 32 -154 55 -206 120 -269 127 -125 308 -86 378 81
8 21 21 109 30 202 31 356 92 511 275 695 103 104 118 112 439 258 748 341
1208 808 1361 1383 42 161 46 235 20 401 -75 463 -206 747 -458 987 -266 252
-625 391 -1118 432 -28 3 -102 -5 -170 -18z"/>
<path d="M2638 1534 c49 -24 92 -56 132 -97 32 -34 61 -59 64 -56 3 3 -12 27
-32 54 -51 67 -136 125 -193 131 l-44 5 73 -37z"/>
<path d="M2073 1541 c-48 -22 -117 -91 -151 -152 -34 -59 -9 -44 51 31 36 45
70 75 109 95 31 17 60 34 64 38 14 14 -32 6 -73 -12z"/>
<path d="M2177 1378 c-144 -17 -311 -107 -416 -225 -83 -92 -171 -291 -171
-385 0 -22 -10 -34 -57 -64 -76 -49 -164 -139 -194 -200 -20 -41 -24 -64 -24
-144 0 -105 10 -134 66 -189 55 -56 85 -66 184 -65 l90 1 30 -51 c27 -46 34
-51 69 -54 21 -2 57 4 80 14 25 10 73 18 126 19 47 1 97 8 111 15 23 11 35 9
90 -13 119 -47 260 -45 419 8 75 25 196 91 257 140 l31 26 13 -38 c34 -105 92
-155 186 -161 103 -7 187 47 214 138 17 56 -1 92 -78 153 l-64 50 59 37 c82
52 107 90 107 161 -1 110 -101 252 -225 318 -41 21 -48 31 -73 96 -100 266
-324 401 -692 418 -38 1 -101 -1 -138 -5z m110 -56 c16 -11 35 -32 43 -46 12
-24 11 -31 -9 -73 -17 -36 -25 -43 -32 -32 -5 8 -9 22 -9 31 0 24 -39 48 -76
48 -27 0 -34 -5 -43 -31 -16 -47 -13 -77 9 -99 24 -24 78 -27 86 -5 14 35 21
9 27 -92 3 -60 11 -123 16 -140 9 -32 8 -34 -37 -65 -42 -30 -54 -33 -118 -33
-60 0 -77 4 -112 28 -23 15 -54 46 -69 69 -25 38 -28 50 -28 132 0 109 18 151
99 232 99 98 185 124 253 76z m322 -56 c75 -52 121 -148 121 -251 0 -145 -95
-250 -225 -250 -70 1 -113 20 -149 68 -36 46 -60 147 -51 213 l6 53 43 -5 c36
-5 47 -3 65 15 11 11 21 32 21 45 0 26 -44 76 -69 76 -13 1 -12 3 4 16 76 60
165 68 234 20z m564 -609 c66 -105 14 -221 -105 -234 l-45 -5 13 63 c8 35 14
115 14 177 l0 114 48 -35 c26 -19 60 -55 75 -80z m-1560 -96 c10 -37 36 -104
57 -147 22 -43 40 -83 40 -89 0 -5 -22 -29 -50 -53 -27 -24 -53 -54 -56 -67
-16 -64 -150 1 -183 88 -15 40 -14 131 3 171 7 18 29 50 47 71 32 37 105 95
118 95 4 0 15 -31 24 -69z m591 -105 c70 -29 46 -89 -41 -101 -95 -14 -121
-51 -97 -137 27 -101 28 -114 5 -137 -18 -18 -33 -21 -106 -21 -61 0 -98 -6
-135 -20 -83 -33 -89 -30 -148 63 -28 46 -52 87 -52 91 0 5 22 33 49 62 28 30
55 69 62 88 l12 34 81 4 c60 4 101 13 160 37 73 29 132 47 164 50 7 1 28 -5
46 -13z m904 -102 c56 -47 92 -123 92 -192 0 -48 -4 -58 -33 -87 -74 -74 -188
-48 -239 56 -43 86 -43 90 0 145 22 27 49 68 61 91 20 40 22 41 50 32 16 -6
47 -26 69 -45z m148 -150 c8 -41 -2 -82 -25 -113 -18 -23 -18 -23 -8 25 7 37
6 63 -5 107 l-15 58 23 -22 c13 -12 26 -37 30 -55z"/>
</g>
</svg>
